<svg width="45" height="38" fill="none" xmlns="http://www.w3.org/2000/svg"><path d="M5.29 17.621v-.551h3.494v4.168c0 .898-.27 1.56-.81 1.985-.539.433-1.266.65-2.181.65-.54 0-1.058-.139-1.557-.417-.49-.27-.735-.641-.735-1.115 0-.09.028-.221.085-.393l.417-1.078c-.719-.319-1.3-.858-1.74-1.618-.434-.76-.65-1.614-.65-2.562 0-1.292.368-2.362 1.103-3.212.744-.85 1.773-1.275 3.09-1.275a4.81 4.81 0 011.911.393c.613.261.92.572.92.931 0 .14-.045.298-.135.478l-.687 1.128-.44-.147.06-.454a3.4 3.4 0 00.05-.564c0-.318-.156-.596-.466-.833-.31-.237-.715-.356-1.214-.356-.752 0-1.324.368-1.716 1.104-.384.727-.576 1.642-.576 2.745 0 1.096.208 1.99.625 2.685.425.686 1.042 1.03 1.851 1.03.327 0 .646-.066.956-.197v-2.525H5.29zm.062 3.53a3.01 3.01 0 01-.822-.11v.38c0 .932.196 1.508.589 1.729.18.098.425.147.735.147.319 0 .58-.115.785-.343.204-.221.306-.556.306-1.006v-1.115a3.964 3.964 0 01-1.593.319zM20.233 4.91v-.49h2.917l2.44 8.09h.613V13H23.04v-.49h.711l-.454-1.508h-3.334l-.441 1.508h.711V13h-2.072v-.49h.613l2.293-7.6h-.834zm1.385.527l-1.483 5.013h2.99l-1.507-5.013zm17.934 8.053h-.123v7.6h1.226v.49h-4.29v-.49h1.225v-7.6h-.122c-.54 0-.911.053-1.116.16-.196.106-.33.343-.404.71l-.245 1.214h-.478l-.331-2.06c0-.163.036-.281.11-.355a.367.367 0 01.233-.134c.09-.017.224-.025.404-.025h5.737c.18 0 .31.008.392.025.09.008.172.053.245.134.074.074.11.192.11.356l-.33 2.06h-.478l-.245-1.214c-.074-.368-.213-.605-.417-.711-.196-.107-.564-.16-1.103-.16zM20.233 33.839h-5.504v-.49h.736v-7.6h-.736v-.49h5.259c.18 0 .31.007.392.024.09.008.172.053.245.134.074.074.11.192.11.356l-.33 2.06h-.478l-.246-1.214c-.073-.368-.212-.605-.416-.711-.197-.107-.564-.16-1.104-.16h-.858v4.193h2.82v.551h-2.82v2.856h1.104c.53 0 .894-.053 1.09-.159.205-.106.348-.343.43-.71l.245-1.092h.478l.33 1.937c0 .163-.036.286-.11.368a.46.46 0 01-.245.135 4.41 4.41 0 01-.392.012zm5.148-1.581c0 .318.156.596.466.833.31.237.711.355 1.201.355.49 0 .879-.118 1.165-.355.286-.237.429-.552.429-.944 0-.498-.298-.911-.895-1.238l-1.814-.968c-1.046-.564-1.57-1.37-1.57-2.415 0-.67.246-1.246.736-1.729.49-.482 1.222-.723 2.195-.723.653 0 1.274.131 1.863.392.588.262.882.572.882.932 0 .139-.045.298-.134.478l-.589 1.128-.429-.135v-1.03c0-.367-.163-.657-.49-.87-.319-.212-.703-.319-1.152-.319-.442 0-.78.131-1.018.393-.237.261-.355.56-.355.895 0 .67.302 1.164.907 1.483l1.557.821c1.184.621 1.777 1.438 1.777 2.452 0 .768-.29 1.348-.87 1.74-.572.393-1.3.589-2.182.589a4.82 4.82 0 01-1.913-.393c-.612-.261-.919-.572-.919-.931 0-.14.045-.298.135-.478l.588-1.128.43.135v1.03z" fill="#313131"/><path d="M1.306 3.371L17.62 17.395c.593.51.564 1.437-.06 1.908L1.305 31.564m42.292-28.5L27.283 17.09a1.226 1.226 0 00.06 1.908l16.254 12.261" stroke="#000" stroke-width="1.839"/></svg>